<?xml version="1.0" standalone="no"?>
<!DOCTYPE svg PUBLIC "-//W3C//DTD SVG 20010904//EN"
 "http://www.w3.org/TR/2001/REC-SVG-20010904/DTD/svg10.dtd">
<svg version="1.0" xmlns="http://www.w3.org/2000/svg"
 width="48.000000pt" height="48.000000pt" viewBox="0 0 48.000000 48.000000"
 preserveAspectRatio="xMidYMid meet">

<g transform="translate(0.000000,48.000000) scale(0.100000,-0.100000)"
fill="#000000" stroke="none">
<path d="M319 406 c-136 -36 -244 -159 -264 -298 -7 -44 -5 -48 13 -48 16 0
21 9 26 43 9 61 48 138 91 182 44 43 121 82 182 91 33 5 43 11 43 25 0 22 -23
24 -91 5z"/>
<path d="M340 198 c-45 -23 -73 -59 -85 -110 -7 -27 -6 -28 32 -28 34 0 40 4
50 31 8 19 23 34 42 42 27 10 31 16 31 49 0 45 -9 47 -70 16z"/>
</g>
</svg>
